<?xml version="1.0" encoding="UTF-8"?>
<svg width="24" height="24" viewBox="0 0 24 24" fill="none" xmlns="http://www.w3.org/2000/svg">
    <path d="M19 3H5C3.895 3 3 3.895 3 5V19C3 20.105 3.895 21 5 21H19C20.105 21 21 20.105 21 19V5C21 3.895 20.105 3 19 3ZM9 17H6.477V9H9V17ZM7.694 7.717C6.923 7.717 6.408 7.203 6.408 6.517C6.408 5.831 6.922 5.317 7.779 5.317C8.55 5.317 9.065 5.831 9.065 6.517C9.065 7.203 8.551 7.717 7.694 7.717ZM18 17H15.558V12.661C15.558 11.571 15.211 10.831 14.258 10.831C13.536 10.831 13.087 11.334 12.892 11.82C12.821 11.981 12.804 12.203 12.804 12.427V17H10.362V9H12.804V10.072C13.193 9.502 13.816 8.681 15.194 8.681C16.918 8.681 18 9.841 18 12.367V17Z" fill="white"/>
</svg>
